<svg version="1.2" xmlns="http://www.w3.org/2000/svg" style="display: none;">
	<symbol id="back-arrow" width="100%" height="100%" viewBox="0 0 28 28" fill="none">
		<circle cx="14" cy="14" r="14" transform="rotate(-180 14 14)" fill="#3369F3"/>
		<rect x="20" y="14.8" width="11" height="1.6" transform="rotate(-180 20 14.8)" fill="white"/>
		<path d="M13 19L9 14L13 9" stroke="white" stroke-width="1.6"/>
	</symbol>
	<symbol id="default-avatar" width="100%" height="100%" viewBox="0 0 40 40" fill="none">
		<path fill-rule="evenodd" clip-rule="evenodd" d="M36 2H4C2.89543 2 2 2.89543 2 4V25.2667L14.6547 22.3139C15.5486 22.1053 16.4635 22 17.3814 22H22.6186C23.5365 22 24.4514 22.1053 25.3453 22.3139L38 25.2667V4C38 2.89543 37.1046 2 36 2ZM4 0C1.79086 0 0 1.79086 0 4V36C0 38.2091 1.79086 40 4 40H36C38.2091 40 40 38.2091 40 36V4C40 1.79086 38.2091 0 36 0H4ZM10.9091 14.5455C12.9174 14.5455 14.5455 12.9174 14.5455 10.9091C14.5455 8.90079 12.9174 7.27273 10.9091 7.27273C8.90082 7.27273 7.27276 8.90079 7.27276 10.9091C7.27276 12.9174 8.90082 14.5455 10.9091 14.5455Z" fill="#CDCDCD"/>
	</symbol>
	<symbol id="search" width="100%" height="100%" viewBox="0 0 20 20" fill="none">
		<path fill-rule="evenodd" clip-rule="evenodd" d="M11.5924 11.4138C10.1605 12.8457 7.83886 12.8457 6.40694 11.4138C4.97502 9.9819 4.97502 7.6603 6.40694 6.22837C7.83886 4.79645 10.1605 4.79645 11.5924 6.22837C13.0243 7.6603 13.0243 9.9819 11.5924 11.4138ZM12.0328 12.7968C10.0725 14.2962 7.25696 14.1495 5.46413 12.3566C3.51151 10.404 3.51151 7.23819 5.46413 5.28556C7.41675 3.33294 10.5826 3.33294 12.5352 5.28556C14.3279 7.07831 14.4747 9.89373 12.9755 11.8539L16.5423 15.4206L15.5994 16.3635L12.0328 12.7968Z" fill="#999999"/>
	</symbol>
	<symbol id="kebab-menu" width="100%" height="100%" viewBox="0 0 3 16" fill="none">
		<circle cx="1.5" cy="2" r="1.5" fill="var(--fill-color-sprite)"/>
		<circle cx="1.5" cy="8" r="1.5" fill="var(--fill-color-sprite)"/>
		<circle cx="1.5" cy="14" r="1.5" fill="var(--fill-color-sprite)"/>
	</symbol>
	<symbol id="attach" width="100%" height="100%" viewBox="0 0 32 32" fill="none">
		<path fill-rule="evenodd" clip-rule="evenodd" d="M7.18662 13.5L14.7628 5.92389L15.7056 6.8667L8.12943 14.4428L7.18662 13.5Z" fill="var(--fill-color-sprite)"/>
		<path fill-rule="evenodd" clip-rule="evenodd" d="M9.70067 16.0141L17.2768 8.43793L18.2196 9.38074L10.6435 16.9569L9.70067 16.0141Z" fill="var(--fill-color-sprite)"/>
		<path fill-rule="evenodd" clip-rule="evenodd" d="M15.0433 21.3567L22.6195 13.7806L23.5623 14.7234L15.9861 22.2995L15.0433 21.3567Z" fill="var(--fill-color-sprite)"/>
		<path fill-rule="evenodd" clip-rule="evenodd" d="M17.5574 23.8708L25.1335 16.2946L26.0763 17.2374L18.5002 24.8136L17.5574 23.8708Z" fill="var(--fill-color-sprite)"/>
		<path fill-rule="evenodd" clip-rule="evenodd" d="M17.5574 23.8709C14.9423 26.486 10.7118 26.4954 8.10831 23.8919C5.50482 21.2884 5.51424 17.0579 8.12936 14.4428L7.18655 13.5C4.0484 16.6381 4.0371 21.7148 7.16129 24.839C10.2855 27.9632 15.3621 27.9518 18.5003 24.8137L17.5574 23.8709Z" fill="var(--fill-color-sprite)"/>
		<path fill-rule="evenodd" clip-rule="evenodd" d="M22.6195 13.7806L23.5623 14.7234C26.003 12.2826 26.0118 8.3341 23.5819 5.90417C21.152 3.47424 17.2035 3.48303 14.7627 5.92381L15.7055 6.86662C17.6233 4.94887 20.7257 4.94196 22.6349 6.85119C24.5441 8.76042 24.5372 11.8628 22.6195 13.7806Z" fill="var(--fill-color-sprite)"/>
		<path fill-rule="evenodd" clip-rule="evenodd" d="M9.70092 16.0144C7.95751 17.7578 7.95123 20.5782 9.68689 22.3138C11.4226 24.0495 14.2429 24.0432 15.9863 22.2998L15.0435 21.357C13.8231 22.5774 11.8489 22.5818 10.6339 21.3668C9.41894 20.1518 9.42334 18.1776 10.6437 16.9572L9.70092 16.0144Z" fill="var(--fill-color-sprite)"/>
	</symbol>
	<symbol id="indicator-message-status" width="100%" height="100%" viewBox="0 0 10 5" fill="none">
		<line y1="-0.5" x2="3.765" y2="-0.5" transform="matrix(0.705933 0.708278 -0.705933 0.708278 0.700195 2.33301)" stroke="var(--stroke-color-sprite)"/>
		<line y1="-0.5" x2="5.6475" y2="-0.5" transform="matrix(0.705933 -0.708278 0.705933 0.708278 3.35828 5)" stroke="var(--stroke-color-sprite)"/>
		<line y1="-0.5" x2="5.6475" y2="-0.5" transform="matrix(0.705933 -0.708278 0.705933 0.708278 6.01587 5)" stroke="var(--stroke-color-sprite)"/>
	</symbol>
	<symbol id="add-users" width="100%" height="100%" viewBox="0 0 22 22" fill="none">
		<circle cx="11" cy="11" r="10.25" stroke="#3369F3" stroke-width="1.5"/>
		<line x1="10.9999" y1="5.5" x2="10.9999" y2="16.5" stroke="#3369F3" stroke-width="1.5"/>
		<line x1="5.49988" y1="11" x2="16.4999" y2="11" stroke="#3369F3" stroke-width="1.5"/>
	</symbol>
	<symbol id="delete-users" width="100%" height="100%" viewBox="0 0 22 22" fill="none">
		<circle cx="11" cy="11" r="10.25" stroke="#3369F3" stroke-width="1.5"/>
		<line x1="7.11077" y1="7.11103" x2="14.8889" y2="14.8892" stroke="#3369F3" stroke-width="1.5"/>
		<line x1="7.11078" y1="14.8891" x2="14.889" y2="7.11093" stroke="#3369F3" stroke-width="1.5"/>
	</symbol>
	<symbol id="trash" width="100%" height="100%" viewBox="0 0 256 256">
		<g fill="#ff0000" fill-rule="nonzero" stroke="none" stroke-width="1" stroke-linecap="butt" stroke-linejoin="miter" stroke-miterlimit="10" stroke-dasharray="" stroke-dashoffset="0" font-family="none" font-weight="none" font-size="none" text-anchor="none" style="mix-blend-mode: normal"><g transform="scale(2,2)"><path d="M49,1c-1.66,0 -3,1.34 -3,3c0,1.66 1.34,3 3,3h30c1.66,0 3,-1.34 3,-3c0,-1.66 -1.34,-3 -3,-3zM24,15c-7.17,0 -13,5.83 -13,13c0,7.17 5.83,13 13,13h77v63c0,9.37 -7.63,17 -17,17h-40c-9.37,0 -17,-7.63 -17,-17v-52c0,-1.66 -1.34,-3 -3,-3c-1.66,0 -3,1.34 -3,3v52c0,12.68 10.32,23 23,23h40c12.68,0 23,-10.32 23,-23v-63.35937c5.72,-1.36 10,-6.50062 10,-12.64062c0,-7.17 -5.83,-13 -13,-13zM24,21h80c3.86,0 7,3.14 7,7c0,3.86 -3.14,7 -7,7h-80c-3.86,0 -7,-3.14 -7,-7c0,-3.86 3.14,-7 7,-7zM50,55c-1.66,0 -3,1.34 -3,3v46c0,1.66 1.34,3 3,3c1.66,0 3,-1.34 3,-3v-46c0,-1.66 -1.34,-3 -3,-3zM78,55c-1.66,0 -3,1.34 -3,3v46c0,1.66 1.34,3 3,3c1.66,0 3,-1.34 3,-3v-46c0,-1.66 -1.34,-3 -3,-3z"></path></g></g>
	</symbol>
</svg>
